#tb 0: 1001/30000
0,          0,          0,        1,      990, 7cbd8c6b2fb35c0c3063cb7a379944c9
0,          1,          1,        1,      990, 14062e74b98bed1ca982f408bc14326c
0,          2,          2,        1,      990, f6d6868d849aa74b27df1c5f40c7096e
0,          3,          3,        1,      990, 719c8d7e3769466ee8e3dca3f4747a0e
0,          4,          4,        1,      990, a72e1a7a4c82ec09ea77f87b0e6f25aa
0,          5,          5,        1,      990, a5163d142b429afa155cc2f1401a0b8a
0,          6,          6,        1,      990, 27762d813dd1f80d6aaed5f197124fa5
0,          7,          7,        1,      990, 02e94454660f3528abbde8f50e94288f
0,          8,          8,        1,      990, 1d57dcfa57a55d96f14cfe471aac2e0b
0,          9,          9,        1,      990, 7804477923c0cd067bd09ebca3529775
